<?xml version="1.0" standalone="no"?>
<!DOCTYPE svg PUBLIC "-//W3C//DTD SVG 20010904//EN"
 "http://www.w3.org/TR/2001/REC-SVG-20010904/DTD/svg10.dtd">
<svg version="1.0" xmlns="http://www.w3.org/2000/svg"
 width="150.000000pt" height="150.000000pt" viewBox="0 0 150.000000 150.000000"
 preserveAspectRatio="xMidYMid meet">
<metadata>
Created by potrace 1.14, written by Peter Selinger 2001-2017
</metadata>
<g transform="translate(0.000000,150.000000) scale(0.100000,-0.100000)"
fill="#000000" stroke="none">
<path d="M115 1485 c-49 -17 -90 -62 -104 -112 -15 -53 -15 -1194 0 -1248 14
-50 64 -100 114 -114 55 -15 1195 -15 1250 0 50 14 100 64 114 114 15 55 15
1195 0 1250 -14 50 -64 100 -114 114 -27 7 -231 11 -630 11 -482 -1 -597 -3
-630 -15z m780 -256 c36 -18 57 -38 75 -70 23 -40 25 -55 25 -159 0 -103 -3
-119 -24 -156 -13 -23 -34 -48 -47 -55 -31 -16 -30 -20 9 -44 17 -11 43 -40
57 -65 23 -42 25 -55 24 -175 0 -142 -9 -177 -60 -229 -52 -52 -84 -59 -271
-64 l-173 -4 0 527 0 527 168 -3 c156 -4 171 -6 217 -30z"/>
<path d="M670 969 l0 -141 60 4 c85 6 103 26 108 118 8 128 -14 160 -108 160
l-60 0 0 -141z"/>
<path d="M670 520 l0 -160 68 0 c77 1 98 12 112 61 13 44 13 144 0 191 -15 52
-42 68 -117 68 l-63 0 0 -160z"/>
</g>
</svg>
